Simulation
nRows=23
nColumns=15
endheader
time  TH_x TH_y TH_z SC_y  SC_z  SC_x  AC_y  AC_z  AC_x  GH_y  GH_z  GH_yy  EL_x  PS_y
1.4  0.000000  0.000000  0.000000  -41.91746829733977  9.173135574291493  13.529170308233144  70.083514894146  22.807664299874656  3.394679513482429  -29.08373007374822  63.499270684559  30.166492008340466  6.423444865501145  120.000000
1.428  0.000000  0.000000  0.000000  -42.12853245467096  9.347598381922028  13.868987468205088  70.25086137085464  22.762458019608935  3.659675508141455  -29.12966460711049  63.77261724859537  30.20737859928222  6.388301478308969  120.000000
1.456  0.000000  0.000000  0.000000  -42.29874671694184  9.492742808737873  14.156616224277634  70.39209319383139  22.709336134500976  3.8769401323849846  -29.172036822120667  63.966673247511146  30.240129502432136  6.376359779936182  120.000000
1.4839999999999998  0.000000  0.000000  0.000000  -42.42774358285629  9.607681929744396  14.39119283994333  70.50462796567174  22.648631292585122  4.04296932761841  -29.20514222285655  64.08807671956609  30.268222541565606  6.380777951398478  120.000000
1.5119999999999998  0.000000  0.000000  0.000000  -42.51608842665663  9.691870663360223  14.57284329822661  70.58709533882752  22.58138706860974  4.155784392560835  -29.224971044792202  64.14442023047341  30.2927627825237  6.395115139711056  120.000000
1.5399999999999998  0.000000  0.000000  0.000000  -42.56493464502522  9.74514358698251  14.703137701759923  70.63956391278437  22.509466374959988  4.2152505317761655  -29.229343098815022  64.1441256280944  30.312485014328164  6.41388742290108  120.000000
1.5679999999999998  0.000000  0.000000  0.000000  -42.5760377954336  9.767722040625035  14.785070537243419  70.66349435305199  22.435302982140048  4.222992440282797  -29.217578909878455  64.09585618067933  30.32428589900719  6.432791064182698  120.000000
1.5959999999999999  0.000000  0.000000  0.000000  -42.55186503928172  9.760256964285139  14.822604018646993  70.66123872376467  22.361496559278155  4.181969750630419  -29.189787348151217  64.0077768155454  30.324512276423295  6.44871750925327  120.000000
1.6239999999999999  0.000000  0.000000  0.000000  -42.495782702638216  9.7238361632511  14.820279769164177  70.63559036586295  22.290508897797142  4.09589190640194  -29.1462549963716  63.886542821428776  30.30993440046666  6.45972803618443  120.000000
1.652  0.000000  0.000000  0.000000  -42.41208287876496  9.659894745208526  14.782798374754766  70.58921670932963  22.22442551257382  3.9687451544004446  -29.086886580183965  63.73659493058239  30.278730153120772  6.464989137079462  120.000000
1.6799999999999997  0.000000  0.000000  0.000000  -42.30583226279195  9.570142343756102  14.714748558415883  70.52446526603822  22.164933261929836  3.8044157488090806  -29.011116862100813  63.559604730660965  30.23061886948187  6.464700687541195  120.000000
1.7079999999999997  0.000000  0.000000  0.000000  -42.182405617037034  9.456420042773965  14.620320837076175  70.44330711196432  22.113300264588766  3.6065729186408735  -28.918068750532292  63.35461716052382  30.166716022651247  6.459910914837645  120.000000
1.7359999999999998  0.000000  0.000000  0.000000  -42.046888085023234  9.320671466526921  14.502961424604498  70.34760412581913  22.07040014870514  3.37867437741672  -28.807140349175643  63.11837872870241  30.08870148844601  6.45228519314365  120.000000
1.7639999999999998  0.000000  0.000000  0.000000  -41.90324181339601  9.164994974605031  14.365134166088605  70.23934964881518  22.036228328688445  3.124140707528864  -28.67842346928282  62.846190990663274  29.998244319598705  6.443816253668418  120.000000
1.7919999999999998  0.000000  0.000000  0.000000  -41.75343444007752  8.991872360382034  14.20819579612713  70.12102527081943  22.00946293336257  2.8466591632734706  -28.533006391503452  62.532651645902014  29.896287801208203  6.436593102091702  120.000000
1.8199999999999998  0.000000  0.000000  0.000000  -41.59681406692618  8.804337813702663  14.032361098718114  69.99557834925174  21.987226711993316  2.5505955913094374  -28.37277972531043  62.17251038604018  29.78309187576905  6.432668242612524  120.000000
1.8479999999999999  0.000000  0.000000  0.000000  -41.43026075511881  8.60598663451822  13.836465782827783  69.86631263523694  21.965794162659115  2.2411103703979123  -28.200218496528713  61.7608173570366  29.658425503753985  6.4340027492362  120.000000
1.876  0.000000  0.000000  0.000000  -41.249510578580285  8.400660144335369  13.617876118797184  69.73611165434468  21.94115086572239  1.9238265864805062  -28.018162964054227  61.29287417450524  29.522590202305203  6.4424344681909504  120.000000
1.904  0.000000  0.000000  0.000000  -41.05053791875822  8.192173386902782  13.373395016107635  69.60683394621357  21.909041995717036  1.6039730110088732  -27.829561153623636  60.763862180262564  29.37729578869433  6.459670162358145  120.000000
1.9319999999999997  0.000000  0.000000  0.000000  -40.830620442703186  7.9840952454830525  13.100048910188706  69.47885825777978  21.865182100414227  1.285982592556996  -27.636708827380744  60.16889887846924  29.226788885168887  6.487286867689229  120.000000
1.9599999999999997  0.000000  0.000000  0.000000  -40.588883222942755  7.779728622024623  12.795738947264256  69.35095739060156  21.805407236951222  0.9732376565302916  -27.44077941808763  59.50309051500055  29.07818420894477  6.526892652093716  120.000000
1.9879999999999998  0.000000  0.000000  0.000000  -40.3264426682679  7.581968318607481  12.459440949724499  69.22064525434945  21.725771125707897  0.6683221994013282  -27.24165411322727  58.762144744010286  28.941152079585624  6.5800835963723685  120.000000
2.016  0.000000  0.000000  0.000000  -40.04634432041002  7.393051152540548  12.091039917820362  69.08469490837162  21.622666604452558  0.372958390937597  -27.038908779422165  57.9428555629153  28.82630808644148  6.648331858851361  120.000000
